<mxfile host="app.diagrams.net" agent="Mozilla/5.0 (Macintosh; Intel Mac OS X 10_15_7) AppleWebKit/537.36 (KHTML, like Gecko) Chrome/135.0.0.0 Safari/537.36" version="27.0.4">
  <diagram name="Page-1" id="ikYdDrL2BmQAbsbR5RGr">
    <mxGraphModel dx="1205" dy="784" grid="1" gridSize="10" guides="1" tooltips="1" connect="1" arrows="1" fold="1" page="1" pageScale="1" pageWidth="850" pageHeight="1100" math="0" shadow="0">
      <root>
        <mxCell id="0" />
        <mxCell id="1" parent="0" />
        <mxCell id="VZXok7_uzjafwWcHzP2_-1" value="&lt;h1&gt;Distributed Job Scheduler (aka Airflow)&lt;/h1&gt;" style="text;html=1;align=center;verticalAlign=middle;resizable=0;points=[];autosize=1;strokeColor=none;fillColor=none;" vertex="1" parent="1">
          <mxGeometry x="205" y="10" width="470" height="70" as="geometry" />
        </mxCell>
        <mxCell id="VZXok7_uzjafwWcHzP2_-2" value="&lt;h2 style=&quot;text-align: left;&quot;&gt;Functional Requirements&lt;/h2&gt;&lt;div&gt;&lt;ol&gt;&lt;li style=&quot;text-align: left;&quot;&gt;create/schedule jobs (immediate/future/recurring)&lt;/li&gt;&lt;li style=&quot;text-align: left;&quot;&gt;monitor status of jobs&lt;/li&gt;&lt;/ol&gt;&lt;/div&gt;" style="text;html=1;align=center;verticalAlign=middle;resizable=0;points=[];autosize=1;strokeColor=none;fillColor=none;" vertex="1" parent="1">
          <mxGeometry x="40" y="60" width="320" height="110" as="geometry" />
        </mxCell>
        <mxCell id="VZXok7_uzjafwWcHzP2_-3" value="&lt;h2&gt;Non-Functional Requirements&lt;/h2&gt;&lt;div&gt;&lt;ul&gt;&lt;li style=&quot;text-align: left;&quot;&gt;availability &amp;gt; consistency&lt;/li&gt;&lt;li style=&quot;text-align: left;&quot;&gt;execute jobs within 2 secs of schedule&lt;/li&gt;&lt;li style=&quot;text-align: left;&quot;&gt;scale to 10k jobs/sec&lt;/li&gt;&lt;li style=&quot;text-align: left;&quot;&gt;at least one execution&lt;/li&gt;&lt;/ul&gt;&lt;/div&gt;" style="text;html=1;align=center;verticalAlign=middle;resizable=0;points=[];autosize=1;strokeColor=none;fillColor=none;" vertex="1" parent="1">
          <mxGeometry x="510" y="60" width="280" height="130" as="geometry" />
        </mxCell>
        <mxCell id="VZXok7_uzjafwWcHzP2_-4" value="&lt;h2&gt;Out of Scope&lt;/h2&gt;&lt;div&gt;&lt;ul&gt;&lt;li style=&quot;text-align: left;&quot;&gt;dependencies/DAG&lt;/li&gt;&lt;li style=&quot;text-align: left;&quot;&gt;cancel jobs&lt;/li&gt;&lt;/ul&gt;&lt;/div&gt;" style="text;html=1;align=center;verticalAlign=middle;resizable=0;points=[];autosize=1;strokeColor=none;fillColor=none;" vertex="1" parent="1">
          <mxGeometry x="330" y="60" width="170" height="110" as="geometry" />
        </mxCell>
        <mxCell id="VZXok7_uzjafwWcHzP2_-5" value="&lt;h2 style=&quot;text-align: left;&quot;&gt;Core Entities&lt;/h2&gt;&lt;div style=&quot;text-align: left;&quot;&gt;Task. | Job | Schedule | User&lt;/div&gt;" style="text;html=1;align=center;verticalAlign=middle;resizable=0;points=[];autosize=1;strokeColor=none;fillColor=none;" vertex="1" parent="1">
          <mxGeometry x="50" y="200" width="180" height="80" as="geometry" />
        </mxCell>
        <mxCell id="VZXok7_uzjafwWcHzP2_-6" value="&lt;h2&gt;API&lt;/h2&gt;" style="text;html=1;align=center;verticalAlign=middle;resizable=0;points=[];autosize=1;strokeColor=none;fillColor=none;" vertex="1" parent="1">
          <mxGeometry x="400" y="170" width="50" height="60" as="geometry" />
        </mxCell>
        <mxCell id="VZXok7_uzjafwWcHzP2_-7" value="&lt;ul&gt;&lt;li style=&quot;text-align: left;&quot;&gt;create job: POST /jobs { taskId, schedule, params } -&amp;gt; Job.id&lt;/li&gt;&lt;li style=&quot;text-align: left;&quot;&gt;query job: GET /jobs?jobId={} -&amp;gt; Status&lt;/li&gt;&lt;li style=&quot;text-align: left;&quot;&gt;list jobs: GET /jobs?type={scheduled|executed}&amp;amp;status={}&amp;amp;start_time={}&amp;amp;end_time={}&amp;amp;page={}&amp;amp;limit={}&lt;/li&gt;&lt;/ul&gt;" style="text;html=1;align=center;verticalAlign=middle;resizable=0;points=[];autosize=1;strokeColor=none;fillColor=none;" vertex="1" parent="1">
          <mxGeometry x="220" y="210" width="610" height="80" as="geometry" />
        </mxCell>
        <mxCell id="VZXok7_uzjafwWcHzP2_-8" value="&lt;h2&gt;High Level Design&lt;/h2&gt;" style="text;html=1;align=center;verticalAlign=middle;resizable=0;points=[];autosize=1;strokeColor=none;fillColor=none;" vertex="1" parent="1">
          <mxGeometry x="340" y="290" width="180" height="60" as="geometry" />
        </mxCell>
        <mxCell id="VZXok7_uzjafwWcHzP2_-11" value="" style="edgeStyle=orthogonalEdgeStyle;rounded=0;orthogonalLoop=1;jettySize=auto;html=1;" edge="1" parent="1" source="VZXok7_uzjafwWcHzP2_-9" target="VZXok7_uzjafwWcHzP2_-10">
          <mxGeometry relative="1" as="geometry" />
        </mxCell>
        <mxCell id="VZXok7_uzjafwWcHzP2_-9" value="" style="html=1;verticalLabelPosition=bottom;align=center;labelBackgroundColor=#ffffff;verticalAlign=top;strokeWidth=2;strokeColor=#0080F0;shadow=0;dashed=0;shape=mxgraph.ios7.icons.user;" vertex="1" parent="1">
          <mxGeometry x="100" y="400" width="30" height="30" as="geometry" />
        </mxCell>
        <mxCell id="VZXok7_uzjafwWcHzP2_-16" value="" style="edgeStyle=orthogonalEdgeStyle;rounded=0;orthogonalLoop=1;jettySize=auto;html=1;" edge="1" parent="1" source="VZXok7_uzjafwWcHzP2_-10" target="VZXok7_uzjafwWcHzP2_-13">
          <mxGeometry relative="1" as="geometry" />
        </mxCell>
        <mxCell id="VZXok7_uzjafwWcHzP2_-10" value="" style="points=[];aspect=fixed;html=1;align=center;shadow=0;dashed=0;fillColor=#FF6A00;strokeColor=none;shape=mxgraph.alibaba_cloud.apigateway;" vertex="1" parent="1">
          <mxGeometry x="210" y="394.15" width="43.199999999999996" height="41.699999999999996" as="geometry" />
        </mxCell>
        <mxCell id="VZXok7_uzjafwWcHzP2_-12" value="LB + API GW" style="text;html=1;align=center;verticalAlign=middle;resizable=0;points=[];autosize=1;strokeColor=none;fillColor=none;" vertex="1" parent="1">
          <mxGeometry x="185" y="438" width="90" height="30" as="geometry" />
        </mxCell>
        <mxCell id="VZXok7_uzjafwWcHzP2_-15" value="" style="edgeStyle=orthogonalEdgeStyle;rounded=0;orthogonalLoop=1;jettySize=auto;html=1;" edge="1" parent="1" source="VZXok7_uzjafwWcHzP2_-13" target="VZXok7_uzjafwWcHzP2_-14">
          <mxGeometry relative="1" as="geometry" />
        </mxCell>
        <mxCell id="VZXok7_uzjafwWcHzP2_-13" value="Job Service" style="shape=process;whiteSpace=wrap;html=1;backgroundOutline=1;" vertex="1" parent="1">
          <mxGeometry x="360" y="397.07" width="100" height="35.85" as="geometry" />
        </mxCell>
        <mxCell id="VZXok7_uzjafwWcHzP2_-14" value="Job DB" style="shape=cylinder3;whiteSpace=wrap;html=1;boundedLbl=1;backgroundOutline=1;size=15;" vertex="1" parent="1">
          <mxGeometry x="520" y="374.99" width="60" height="80" as="geometry" />
        </mxCell>
        <mxCell id="VZXok7_uzjafwWcHzP2_-17" value="POST /jobs" style="text;html=1;align=center;verticalAlign=middle;resizable=0;points=[];autosize=1;strokeColor=none;fillColor=none;" vertex="1" parent="1">
          <mxGeometry x="120" y="367.07" width="80" height="30" as="geometry" />
        </mxCell>
        <mxCell id="VZXok7_uzjafwWcHzP2_-18" value="GET /jobs" style="text;html=1;align=center;verticalAlign=middle;resizable=0;points=[];autosize=1;strokeColor=none;fillColor=none;" vertex="1" parent="1">
          <mxGeometry x="120" y="380" width="80" height="30" as="geometry" />
        </mxCell>
        <mxCell id="VZXok7_uzjafwWcHzP2_-19" value="Query Service" style="shape=process;whiteSpace=wrap;html=1;backgroundOutline=1;" vertex="1" parent="1">
          <mxGeometry x="360" y="454.99" width="100" height="35.85" as="geometry" />
        </mxCell>
        <mxCell id="VZXok7_uzjafwWcHzP2_-20" style="edgeStyle=orthogonalEdgeStyle;rounded=0;orthogonalLoop=1;jettySize=auto;html=1;entryX=0;entryY=1;entryDx=0;entryDy=-15;entryPerimeter=0;" edge="1" parent="1" source="VZXok7_uzjafwWcHzP2_-19" target="VZXok7_uzjafwWcHzP2_-14">
          <mxGeometry relative="1" as="geometry" />
        </mxCell>
        <mxCell id="VZXok7_uzjafwWcHzP2_-22" value="" style="edgeStyle=orthogonalEdgeStyle;rounded=0;orthogonalLoop=1;jettySize=auto;html=1;" edge="1" parent="1" source="VZXok7_uzjafwWcHzP2_-21" target="VZXok7_uzjafwWcHzP2_-14">
          <mxGeometry relative="1" as="geometry" />
        </mxCell>
        <mxCell id="VZXok7_uzjafwWcHzP2_-24" value="" style="edgeStyle=orthogonalEdgeStyle;rounded=0;orthogonalLoop=1;jettySize=auto;html=1;" edge="1" parent="1" source="VZXok7_uzjafwWcHzP2_-21" target="VZXok7_uzjafwWcHzP2_-23">
          <mxGeometry relative="1" as="geometry" />
        </mxCell>
        <mxCell id="VZXok7_uzjafwWcHzP2_-21" value="Task Watcher" style="shape=process;whiteSpace=wrap;html=1;backgroundOutline=1;" vertex="1" parent="1">
          <mxGeometry x="500" y="547.08" width="100" height="35.85" as="geometry" />
        </mxCell>
        <mxCell id="VZXok7_uzjafwWcHzP2_-27" value="" style="edgeStyle=orthogonalEdgeStyle;rounded=0;orthogonalLoop=1;jettySize=auto;html=1;" edge="1" parent="1" source="VZXok7_uzjafwWcHzP2_-23" target="VZXok7_uzjafwWcHzP2_-26">
          <mxGeometry relative="1" as="geometry" />
        </mxCell>
        <mxCell id="VZXok7_uzjafwWcHzP2_-23" value="" style="outlineConnect=0;dashed=0;verticalLabelPosition=bottom;verticalAlign=top;align=center;html=1;shape=mxgraph.aws3.sqs;fillColor=#D9A741;gradientColor=none;" vertex="1" parent="1">
          <mxGeometry x="387" y="540" width="53" height="50" as="geometry" />
        </mxCell>
        <mxCell id="VZXok7_uzjafwWcHzP2_-25" value="Message Queue&amp;nbsp;&lt;div&gt;(SQS)&lt;/div&gt;" style="text;html=1;align=center;verticalAlign=middle;resizable=0;points=[];autosize=1;strokeColor=none;fillColor=none;" vertex="1" parent="1">
          <mxGeometry x="358.5" y="590" width="110" height="40" as="geometry" />
        </mxCell>
        <mxCell id="VZXok7_uzjafwWcHzP2_-26" value="Task Worker" style="shape=process;whiteSpace=wrap;html=1;backgroundOutline=1;" vertex="1" parent="1">
          <mxGeometry x="240" y="550.08" width="100" height="29.85" as="geometry" />
        </mxCell>
        <mxCell id="VZXok7_uzjafwWcHzP2_-28" style="edgeStyle=orthogonalEdgeStyle;rounded=0;orthogonalLoop=1;jettySize=auto;html=1;entryX=0;entryY=1;entryDx=0;entryDy=-15;entryPerimeter=0;" edge="1" parent="1" source="VZXok7_uzjafwWcHzP2_-26" target="VZXok7_uzjafwWcHzP2_-14">
          <mxGeometry relative="1" as="geometry">
            <Array as="points">
              <mxPoint x="290" y="510" />
              <mxPoint x="500" y="510" />
              <mxPoint x="500" y="460" />
              <mxPoint x="520" y="460" />
            </Array>
          </mxGeometry>
        </mxCell>
        <mxCell id="VZXok7_uzjafwWcHzP2_-29" value="" style="outlineConnect=0;dashed=0;verticalLabelPosition=bottom;verticalAlign=top;align=center;html=1;shape=mxgraph.aws3.redis;fillColor=#2E73B8;gradientColor=none;" vertex="1" parent="1">
          <mxGeometry x="590" y="477" width="40" height="33" as="geometry" />
        </mxCell>
        <mxCell id="VZXok7_uzjafwWcHzP2_-30" value="Distributed lock&amp;nbsp;&lt;div&gt;(Redis)&lt;/div&gt;" style="text;html=1;align=center;verticalAlign=middle;resizable=0;points=[];autosize=1;strokeColor=none;fillColor=none;" vertex="1" parent="1">
          <mxGeometry x="545" y="513" width="110" height="40" as="geometry" />
        </mxCell>
        <mxCell id="VZXok7_uzjafwWcHzP2_-33" value="&lt;h4&gt;JobDB&lt;/h4&gt;" style="swimlane;fontStyle=0;childLayout=stackLayout;horizontal=1;startSize=30;horizontalStack=0;resizeParent=1;resizeParentMax=0;resizeLast=0;collapsible=1;marginBottom=0;whiteSpace=wrap;html=1;" vertex="1" parent="1">
          <mxGeometry x="680" y="370" width="160" height="160" as="geometry" />
        </mxCell>
        <mxCell id="VZXok7_uzjafwWcHzP2_-34" value="&lt;b&gt;Jobs:&lt;/b&gt;&lt;div&gt;id, taskId, userId, schedule&lt;/div&gt;&lt;div&gt;&lt;br&gt;&lt;/div&gt;&lt;div&gt;&lt;b&gt;Execution:&lt;/b&gt;&lt;div&gt;id, jobId, userId, startTime, endTime, status&lt;/div&gt;&lt;/div&gt;" style="text;strokeColor=none;fillColor=none;align=left;verticalAlign=middle;spacingLeft=4;spacingRight=4;overflow=hidden;points=[[0,0.5],[1,0.5]];portConstraint=eastwest;rotatable=0;whiteSpace=wrap;html=1;" vertex="1" parent="VZXok7_uzjafwWcHzP2_-33">
          <mxGeometry y="30" width="160" height="130" as="geometry" />
        </mxCell>
        <mxCell id="VZXok7_uzjafwWcHzP2_-37" value="&lt;h2&gt;Deep Dives&lt;/h2&gt;" style="text;html=1;align=center;verticalAlign=middle;resizable=0;points=[];autosize=1;strokeColor=none;fillColor=none;" vertex="1" parent="1">
          <mxGeometry x="365" y="643" width="120" height="60" as="geometry" />
        </mxCell>
        <mxCell id="VZXok7_uzjafwWcHzP2_-38" value="&lt;h3 style=&quot;text-align: left;&quot;&gt;Job Failures:&lt;/h3&gt;&lt;div style=&quot;&quot;&gt;&lt;ol&gt;&lt;li style=&quot;text-align: left;&quot;&gt;visible: retry + backoff&lt;/li&gt;&lt;li&gt;invisible: SQS visibility timeout (delay until exec time)&lt;/li&gt;&lt;/ol&gt;&lt;/div&gt;" style="text;html=1;align=center;verticalAlign=middle;resizable=0;points=[];autosize=1;strokeColor=none;fillColor=none;" vertex="1" parent="1">
          <mxGeometry x="40" y="710" width="350" height="100" as="geometry" />
        </mxCell>
        <mxCell id="VZXok7_uzjafwWcHzP2_-39" value="&lt;h3&gt;Data Flow:&lt;/h3&gt;&lt;div&gt;&lt;ol&gt;&lt;li&gt;&lt;span style=&quot;background-color: transparent; color: light-dark(rgb(0, 0, 0), rgb(255, 255, 255));&quot;&gt;user schedules job (cron syntax or timestamp)&lt;/span&gt;&lt;/li&gt;&lt;li&gt;Job Service persists job in Job DB (Jobs and Execution tables)&lt;/li&gt;&lt;li&gt;Task Watcher selects next 5 minutes of jobs&lt;/li&gt;&lt;li&gt;Task Watcher pushes jobs to SQS with visibility timeout&lt;/li&gt;&lt;li&gt;Task Worker (ECS) executes the job and updates status in JobDB&lt;/li&gt;&lt;li&gt;SQS retries failed jobs and maintains dead letter queue&lt;/li&gt;&lt;li&gt;Cloud Watch alerts for error rate, throughput etc&lt;/li&gt;&lt;/ol&gt;&lt;/div&gt;" style="text;html=1;align=left;verticalAlign=middle;resizable=0;points=[];autosize=1;strokeColor=none;fillColor=none;" vertex="1" parent="1">
          <mxGeometry x="410" y="705" width="410" height="170" as="geometry" />
        </mxCell>
        <mxCell id="VZXok7_uzjafwWcHzP2_-40" value="(ECS containers)" style="text;html=1;align=center;verticalAlign=middle;resizable=0;points=[];autosize=1;strokeColor=none;fillColor=none;" vertex="1" parent="1">
          <mxGeometry x="240" y="579.93" width="110" height="30" as="geometry" />
        </mxCell>
      </root>
    </mxGraphModel>
  </diagram>
</mxfile>
